<?xml version="1.0" encoding="utf-8"?>
<!-- Generator: Adobe Illustrator 16.0.0, SVG Export Plug-In . SVG Version: 6.00 Build 0)  -->
<!DOCTYPE svg PUBLIC "-//W3C//DTD SVG 1.1//EN" "http://www.w3.org/Graphics/SVG/1.1/DTD/svg11.dtd">
<svg version="1.1" id="Layer_1" xmlns="http://www.w3.org/2000/svg" xmlns:xlink="http://www.w3.org/1999/xlink" x="0px" y="0px"
	 width="40px" height="77.744px" viewBox="0 0 40 77.744" enable-background="new 0 0 40 77.744" xml:space="preserve">
<g>
	<g>
		<g>
			<g>
				<g>
					<path id="SVGID_1_" fill="#5B5B5B" d="M18.41,30.564v7.678c1.785,0,3.705-0.771,5.109-2.177
						c1.406-1.406,2.043-3.325,2.043-5.501H18.41L18.41,30.564z M29.021,8.057c-2.813,0-5.244,0.893-7.285,2.69
						c-2.041-1.784-4.475-2.69-7.166-2.69v7.679c0.771,0,2.043,0.378,2.689,1.148c0.771,0.771,1.15,1.542,1.15,2.177l0,0v10.99
						h7.164V19.182V19.06c0-0.893,0.379-1.663,1.027-2.298c0.635-0.635,1.404-1.026,2.299-1.026l0,0L29.021,8.057L29.021,8.057z
						 M29.279,15.722c0.893,0.122,1.541,0.514,2.176,1.149c0.637,0.635,0.895,1.406,0.895,2.298s-0.381,1.663-1.027,2.433
						c-0.637,0.637-1.406,1.028-2.436,1.028H25.82v7.678h3.188c3.07,0,5.625-1.148,7.801-3.325C38.986,24.806,40,22.251,40,19.182
						c0-2.946-1.029-5.624-3.191-7.678c-2.041-2.176-4.609-3.326-7.678-3.326L29.279,15.722L29.279,15.722z"/>
				</g>
				<g>
					<g>
						<g>
							<g>
								<defs>
									<path id="SVGID_2_" d="M18.41,30.564v7.678c1.785,0,3.705-0.771,5.109-2.177c1.406-1.406,2.043-3.325,2.043-5.501H18.41
										L18.41,30.564z M29.021,8.057c-2.813,0-5.244,0.893-7.285,2.69c-2.041-1.784-4.475-2.69-7.166-2.69v7.679
										c0.771,0,2.043,0.378,2.689,1.148c0.771,0.771,1.15,1.542,1.15,2.177l0,0v10.99h7.164V19.182V19.06
										c0-0.893,0.379-1.663,1.027-2.298c0.635-0.635,1.404-1.026,2.299-1.026l0,0L29.021,8.057L29.021,8.057z M29.279,15.722
										c0.893,0.122,1.541,0.514,2.176,1.149c0.637,0.635,0.895,1.406,0.895,2.298s-0.381,1.663-1.027,2.433
										c-0.637,0.637-1.406,1.028-2.436,1.028H25.82v7.678h3.188c3.07,0,5.625-1.148,7.801-3.325
										C38.986,24.806,40,22.251,40,19.182c0-2.946-1.029-5.624-3.191-7.678c-2.041-2.176-4.609-3.326-7.678-3.326L29.279,15.722
										L29.279,15.722z"/>
								</defs>
								<use xlink:href="#SVGID_2_"  overflow="visible" fill="#5B5B5B"/>
								<clipPath id="SVGID_4_">
									<use xlink:href="#SVGID_2_"  overflow="visible"/>
								</clipPath>
								<rect x="14.449" y="8.057" clip-path="url(#SVGID_4_)" fill="#5B5B5B" width="25.576" height="30.173"/>
							</g>
						</g>
					</g>
				</g>
			</g>
		</g>
		<g>
			<g>
				<g>
					<path id="SVGID_3_" fill="#5B5B5B" d="M10.99,8.057c-3.07,0-5.625,1.149-7.801,3.326C1.012,13.559,0,16.114,0,19.061
						c0,3.068,1.027,5.625,3.189,7.801c2.041,2.176,4.609,3.324,7.678,3.324v-7.678c-0.893-0.122-1.541-0.514-2.176-1.148
						c-0.637-0.636-1.027-1.406-1.027-2.298c0-0.894,0.379-1.785,1.027-2.435c0.648-0.648,1.404-1.027,2.297-1.027h3.068V7.922
						h-3.068v0.135H10.99z M14.449,8.057v10.99v0.122c0,0.893-0.377,1.663-1.027,2.298c-0.635,0.635-1.404,1.027-2.297,1.027l0,0
						v7.678l0,0c2.813,0,5.244-0.893,7.285-2.812c2.176,1.784,4.475,2.812,7.164,2.812v-7.678c-0.891,0-1.662-0.378-2.297-1.149
						c-0.635-0.77-1.027-1.541-1.148-2.298l0,0V8.057H14.449z M16.627,2.176c-1.406,1.406-2.043,3.326-2.178,5.502h7.68V0
						C19.816,0,18.033,0.771,16.627,2.176"/>
				</g>
				<g>
					<g>
						<g>
							<g>
								<defs>
									<path id="SVGID_5_" d="M10.99,8.057c-3.07,0-5.625,1.149-7.801,3.326C1.012,13.559,0,16.114,0,19.061
										c0,3.068,1.027,5.625,3.189,7.801c2.041,2.176,4.609,3.324,7.678,3.324v-7.678c-0.893-0.122-1.541-0.514-2.176-1.148
										c-0.637-0.636-1.027-1.406-1.027-2.298c0-0.894,0.379-1.785,1.027-2.435c0.648-0.648,1.404-1.027,2.297-1.027h3.068V7.922
										h-3.068v0.135H10.99z M14.449,8.057v10.99v0.122c0,0.893-0.377,1.663-1.027,2.298c-0.635,0.635-1.404,1.027-2.297,1.027
										l0,0v7.678l0,0c2.813,0,5.244-0.893,7.285-2.812c2.176,1.784,4.475,2.812,7.164,2.812v-7.678
										c-0.891,0-1.662-0.378-2.297-1.149c-0.635-0.77-1.027-1.541-1.148-2.298l0,0V8.057H14.449z M16.627,2.176
										c-1.406,1.406-2.043,3.326-2.178,5.502h7.68V0C19.816,0,18.033,0.771,16.627,2.176"/>
								</defs>
								<use xlink:href="#SVGID_5_"  overflow="visible" fill="#5B5B5B"/>
								<clipPath id="SVGID_6_">
									<use xlink:href="#SVGID_5_"  overflow="visible"/>
								</clipPath>
								<rect x="-0.002" clip-path="url(#SVGID_6_)" fill="#5B5B5B" width="25.576" height="30.172"/>
							</g>
						</g>
					</g>
				</g>
			</g>
		</g>
	</g>
	<g>
		<g>
			<g>
				<g>
					<g>
						<g>
							<g>
								<defs>
									<path id="SVGID_7_" d="M18.41,70.065v7.679c1.785,0,3.705-0.771,5.109-2.177c1.406-1.406,2.043-3.325,2.043-5.502H18.41
										L18.41,70.065z M29.021,47.571c-2.813,0-5.244,0.892-7.285,2.689c-2.041-1.784-4.475-2.689-7.166-2.689v7.679
										c0.771,0,2.043,0.378,2.689,1.149c0.771,0.771,1.15,1.541,1.15,2.176l0,0v10.99h7.164v-10.99v-0.122
										c0-0.892,0.379-1.663,1.027-2.298c0.635-0.635,1.404-1.027,2.299-1.027l0,0L29.021,47.571L29.021,47.571L29.021,47.571z
										 M29.279,55.236c0.893,0.122,1.541,0.514,2.176,1.148c0.637,0.636,0.895,1.406,0.895,2.298
										c0,0.893-0.381,1.662-1.027,2.434c-0.637,0.636-1.406,1.026-2.436,1.026H25.82v7.68h3.188c3.07,0,5.625-1.149,7.801-3.325
										C38.986,64.32,40,61.766,40,58.697c0-2.947-1.029-5.624-3.191-7.678c-2.041-2.177-4.609-3.325-7.678-3.325L29.279,55.236
										L29.279,55.236z"/>
								</defs>
								<clipPath id="SVGID_8_">
									<use xlink:href="#SVGID_7_"  overflow="visible"/>
								</clipPath>
								
									<radialGradient id="SVGID_9_" cx="-1121.0229" cy="-623.5776" r="0.0295" gradientTransform="matrix(1048.9801 0 0 1048.9801 1175959 654168.8125)" gradientUnits="userSpaceOnUse">
									<stop  offset="0" style="stop-color:#E39826"/>
									<stop  offset="1" style="stop-color:#DD5D26"/>
								</radialGradient>
								<rect x="14.449" y="47.571" clip-path="url(#SVGID_8_)" fill="url(#SVGID_9_)" width="25.576" height="30.173"/>
							</g>
						</g>
					</g>
				</g>
			</g>
		</g>
		<g>
			<g>
				<g>
					<g>
						<g>
							<g>
								<defs>
									<path id="SVGID_10_" d="M10.99,47.571c-3.07,0-5.625,1.148-7.801,3.326C1.012,52.938,0,55.628,0,58.575
										c0,3.067,1.027,5.623,3.189,7.8C5.23,68.552,7.799,69.7,10.867,69.7v-7.678c-0.893-0.122-1.541-0.515-2.176-1.149
										c-0.637-0.636-1.027-1.406-1.027-2.176c0-0.893,0.379-1.784,1.027-2.434c0.648-0.648,1.404-1.026,2.297-1.026h3.068V47.56
										h-3.068v0.012H10.99z M14.449,47.571v10.99v0.122c0,0.892-0.377,1.661-1.027,2.298c-0.635,0.636-1.404,1.026-2.297,1.026
										l0,0v7.68l0,0c2.813,0,5.244-0.894,7.285-2.813c2.176,1.784,4.475,2.813,7.164,2.813v-7.68
										c-0.891,0-1.662-0.379-2.297-1.148c-0.635-0.771-1.027-1.541-1.148-2.298l0,0V47.437L14.449,47.571L14.449,47.571z
										 M16.627,41.69c-1.406,1.405-2.043,3.325-2.178,5.502h7.68v-7.679C19.816,39.514,18.033,40.285,16.627,41.69"/>
								</defs>
								<clipPath id="SVGID_11_">
									<use xlink:href="#SVGID_10_"  overflow="visible"/>
								</clipPath>
								
									<radialGradient id="SVGID_12_" cx="-1120.4478" cy="-623.5698" r="0.0293" gradientTransform="matrix(1057.967 0 0 1057.967 1185406.75 659764)" gradientUnits="userSpaceOnUse">
									<stop  offset="0" style="stop-color:#01A2CF"/>
									<stop  offset="1" style="stop-color:#005D9A"/>
								</radialGradient>
								<rect x="-0.002" y="39.514" clip-path="url(#SVGID_11_)" fill="url(#SVGID_12_)" width="25.576" height="30.174"/>
							</g>
						</g>
					</g>
				</g>
			</g>
		</g>
	</g>
</g>
</svg>
